<svg xmlns="http://www.w3.org/2000/svg" width="28" height="28" viewBox="0 0 28 28" fill="none">
  <rect x="1" y="1" width="26" height="26" rx="8" fill="#FFFFFF"/>
  <path d="m20.64 6.64-1.28-1.28a1.21 1.21 0 0 0-1.72 0L4.36 18.64a1.21 1.21 0 0 0 0 1.72l1.28 1.28a1.2 1.2 0 0 0 1.72 0L20.64 8.36a1.2 1.2 0 0 0 0-1.72" stroke="#000000" stroke-width="1.9" stroke-linecap="round" stroke-linejoin="round"/>
  <path d="m13 10 3 3" stroke="#000000" stroke-width="1.9" stroke-linecap="round" stroke-linejoin="round"/>
  <path d="M6 9v3" stroke="#000000" stroke-width="1.9" stroke-linecap="round" stroke-linejoin="round"/>
  <path d="M18 15v3" stroke="#000000" stroke-width="1.9" stroke-linecap="round" stroke-linejoin="round"/>
  <path d="M11 5v2" stroke="#000000" stroke-width="1.9" stroke-linecap="round" stroke-linejoin="round"/>
  <path d="M8 11H5" stroke="#000000" stroke-width="1.9" stroke-linecap="round" stroke-linejoin="round"/>
  <path d="M20 17h-3" stroke="#000000" stroke-width="1.9" stroke-linecap="round" stroke-linejoin="round"/>
  <path d="M12 6H10" stroke="#000000" stroke-width="1.9" stroke-linecap="round" stroke-linejoin="round"/>
</svg>
